<?xml version="1.0" encoding="UTF-8" standalone="no"?>
<!-- Created with Inkscape (http://www.inkscape.org/) -->

<svg
   xmlns:dc="http://purl.org/dc/elements/1.1/"
   xmlns:cc="http://creativecommons.org/ns#"
   xmlns:rdf="http://www.w3.org/1999/02/22-rdf-syntax-ns#"
   xmlns:svg="http://www.w3.org/2000/svg"
   xmlns="http://www.w3.org/2000/svg"
   xmlns:sodipodi="http://sodipodi.sourceforge.net/DTD/sodipodi-0.dtd"
   xmlns:inkscape="http://www.inkscape.org/namespaces/inkscape"
   width="1024"
   height="768"
   viewBox="0 0 270.93333 203.20001"
   version="1.1"
   id="svg4815"
   inkscape:version="0.92.4 5da689c313, 2019-01-14"
   sodipodi:docname="background.svg">
  <defs
     id="defs4809" />
  <sodipodi:namedview
     id="base"
     pagecolor="#ffffff"
     bordercolor="#666666"
     borderopacity="1.0"
     inkscape:pageopacity="0.0"
     inkscape:pageshadow="2"
     inkscape:zoom="1.4"
     inkscape:cx="463.55751"
     inkscape:cy="416.34946"
     inkscape:document-units="mm"
     inkscape:current-layer="layer1"
     showgrid="false"
     units="px"
     inkscape:window-width="3200"
     inkscape:window-height="1672"
     inkscape:window-x="0"
     inkscape:window-y="54"
     inkscape:window-maximized="1" />
  <metadata
     id="metadata4812">
    <rdf:RDF>
      <cc:Work
         rdf:about="">
        <dc:format>image/svg+xml</dc:format>
        <dc:type
           rdf:resource="http://purl.org/dc/dcmitype/StillImage" />
        <dc:title></dc:title>
      </cc:Work>
    </rdf:RDF>
  </metadata>
  <g
     inkscape:label="Layer 1"
     inkscape:groupmode="layer"
     id="layer1"
     transform="translate(0,-93.799983)">
    <g
       id="g5380"
       transform="matrix(0.32569707,0,0,0.32569707,4.6098854,195.07397)">
      <path
         sodipodi:nodetypes="cccccccc"
         inkscape:connector-curvature="0"
         id="path4629"
         d="m 38.381726,202.73932 c 2.40771,25.18833 -22.93916,16.03385 -32.3318705,39.26426 -5.99703996,14.87874 -1.07841,33.12032 13.8503205,43.50174 13.10713,8.37333 24.88415,9.36302 36.73936,4.73408 10.3713,-3.96557 18.8343,-12.10016 22.77948,-21.80384 5.87584,-14.43928 0.44069,-25.30967 -8.69817,-35.17253 -6.96285,-7.3715 -9.33422,-8.59742 -15.70034,-14.42599 -5.96941,-5.15522 -11.93158,-10.39124 -16.63878,-16.09772 z"
         style="fill:#2ba9e0;stroke-width:0.47209489" />
      <path
         inkscape:export-ydpi="250.55"
         inkscape:export-xdpi="250.55"
         inkscape:export-filename="./path3059.png"
         sodipodi:nodetypes="ccccccccsccccscssccsccccccccscccsccccccccccccccscccscsccsccccscscsccccccccscccscsccccsccccscscscccccccccccccccscccsccccccccccccscccccscccccccccccccccccccccccscccscccccccccscccscccc"
         style="color:#000000;font-style:normal;font-variant:normal;font-weight:normal;font-stretch:normal;font-size:medium;line-height:normal;font-family:Sans;-inkscape-font-specification:Sans;text-indent:0;text-align:start;text-decoration:none;text-decoration-line:none;letter-spacing:normal;word-spacing:normal;text-transform:none;writing-mode:lr-tb;direction:ltr;baseline-shift:baseline;text-anchor:start;display:inline;overflow:visible;visibility:visible;fill:#ffffff;fill-opacity:1;stroke:none;stroke-width:0;stroke-miterlimit:4;stroke-dasharray:none;stroke-opacity:1;marker:none;enable-background:accumulate"
         d="m 42.709406,223.31228 c -1.00868,1e-4 -1.82653,0.90863 -1.82641,2.02934 0,0.0172 0.004,0.0336 0.004,0.0507 -0.002,0.15227 -0.009,0.33573 -0.004,0.4683 0.024,0.6464 0.16496,1.14112 0.24976,1.73665 0.15364,1.27464 0.28239,2.33123 0.20294,3.3133 -0.0773,0.37033 -0.35003,0.70901 -0.59319,0.94442 l -0.0429,0.77271 c -1.09608,0.0908 -2.19948,0.25711 -3.30159,0.50734 -4.74237,1.07676 -8.82547,3.51958 -11.9341,6.81781 -0.20171,-0.13761 -0.5546,-0.39077 -0.65954,-0.46831 -0.32609,0.044 -0.65566,0.14465 -1.08492,-0.10536 -0.81734,-0.5502 -1.56177,-1.30964 -2.46253,-2.22448 -0.41273,-0.43761 -0.71162,-0.85432 -1.20199,-1.27614 -0.11136,-0.0958 -0.28131,-0.22536 -0.40587,-0.32392 -0.38338,-0.30566 -0.83556,-0.46506 -1.27224,-0.48002 -0.56146,-0.0192 -1.10196,0.2003 -1.45567,0.64393 -0.62881,0.78868 -0.42749,1.99413 0.4488,2.69278 0.009,0.007 0.0184,0.0126 0.0273,0.0195 0.12041,0.0976 0.26787,0.22268 0.37855,0.3044 0.52037,0.38421 0.99571,0.58089 1.5142,0.88589 1.09235,0.67459 1.99792,1.23395 2.7162,1.90836 0.28049,0.29899 0.32951,0.82584 0.36684,1.0537 l 0.58539,0.52295 c -3.13373,4.71603 -4.58405,10.54128 -3.72696,16.47671 l -0.76491,0.22244 c -0.20159,0.26033 -0.48647,0.66997 -0.78442,0.79223 -0.93976,0.29599 -1.99741,0.40469 -3.27427,0.53855 -0.59947,0.0499 -1.11672,0.0201 -1.75226,0.14049 -0.13988,0.0265 -0.33478,0.0773 -0.48782,0.11318 -0.005,0.001 -0.0103,0.003 -0.0156,0.004 -0.008,0.002 -0.0193,0.006 -0.0273,0.008 -1.07651,0.26011 -1.76806,1.24958 -1.54542,2.22448 0.22269,0.97512 1.27419,1.56812 2.35716,1.33468 0.008,-0.002 0.0191,-0.002 0.0273,-0.004 0.0122,-0.003 0.023,-0.009 0.0351,-0.0117 0.15096,-0.0331 0.34015,-0.07 0.47221,-0.10537 0.62483,-0.1673 1.07736,-0.41311 1.63909,-0.62831 1.20848,-0.43344 2.20939,-0.79553 3.18451,-0.93662 0.40726,-0.0319 0.83635,0.25128 1.04979,0.37074 l 0.79613,-0.13659 c 1.83205,5.68002 5.67144,10.27098 10.53307,13.15171 l -0.33172,0.79612 c 0.11956,0.30914 0.25144,0.72741 0.16237,1.0327 -0.3545,0.91929 -0.96171,1.88959 -1.65316,2.97136 -0.33479,0.49977 -0.67743,0.88761 -0.97954,1.45956 -0.0723,0.13686 -0.16437,0.34709 -0.23416,0.49173 -0.46941,1.00435 -0.12509,2.16112 0.77661,2.59521 0.90737,0.43683 2.03365,-0.0239 2.52107,-1.03028 7.9e-4,-10e-4 0.003,-0.002 0.004,-0.004 5.3e-4,-10e-4 -5.3e-4,-0.003 0,-0.004 0.0694,-0.14268 0.16779,-0.33023 0.22635,-0.4644 0.25877,-0.59282 0.34488,-1.10085 0.52685,-1.67421 0.48325,-1.21388 0.74876,-2.48754 1.41399,-3.28118 0.18217,-0.21733 0.47915,-0.30091 0.78707,-0.38335 l 0.41367,-0.7493 c 4.2383,1.62683 8.98239,2.06337 13.72148,0.98736 1.08111,-0.24547 2.12481,-0.56315 3.13378,-0.94443 0.11626,0.20623 0.33233,0.60265 0.39025,0.70247 0.31291,0.1018 0.65445,0.15437 0.93272,0.56587 0.49771,0.85033 0.83808,1.85628 1.25273,3.07134 0.182,0.57334 0.27195,1.0814 0.53075,1.6742 0.059,0.13512 0.15686,0.32531 0.22635,0.46831 0.4864,1.00966 1.61625,1.47196 2.52497,1.03419 0.9016,-0.43433 1.2463,-1.59099 0.77662,-2.59522 -0.0698,-0.14463 -0.16576,-0.35487 -0.23806,-0.49172 -0.30215,-0.57194 -0.64473,-0.95592 -0.97955,-1.45567 -0.6915,-1.08172 -1.26502,-1.98035 -1.61957,-2.89962 -0.14825,-0.47412 0.025,-0.76899 0.14049,-1.07711 -0.0692,-0.0793 -0.21714,-0.52702 -0.3044,-0.73759 5.05243,-2.98322 8.77907,-7.74538 10.52917,-13.24537 0.23633,0.0371 0.64709,0.10982 0.78052,0.13659 0.27468,-0.18116 0.52724,-0.41754 1.02248,-0.37855 0.97512,0.14104 1.976,0.50325 3.1845,0.93662 0.56174,0.21518 1.01425,0.46496 1.63909,0.63222 0.13206,0.0353 0.32124,0.0683 0.47221,0.10147 0.0121,0.003 0.0229,0.009 0.0351,0.0117 0.008,0.002 0.0195,0.002 0.0273,0.004 1.08303,0.23316 2.13472,-0.3595 2.35716,-1.33468 0.22239,-0.97495 -0.46885,-1.96465 -1.54542,-2.22447 -0.1566,-0.0356 -0.37868,-0.0961 -0.53075,-0.12489 -0.63555,-0.12035 -1.15279,-0.0907 -1.75226,-0.14048 -1.27687,-0.1338 -2.3345,-0.24261 -3.27427,-0.53856 -0.38317,-0.14865 -0.65576,-0.60459 -0.78833,-0.79223 l -0.73759,-0.21464 c 0.38243,-2.7667 0.27931,-5.64611 -0.38245,-8.52714 -0.66792,-2.90786 -1.84831,-5.56738 -3.42257,-7.91054 0.18921,-0.172 0.54651,-0.48841 0.64783,-0.58149 0.0296,-0.32771 0.004,-0.67131 0.34343,-1.03418 0.71824,-0.67445 1.62389,-1.23371 2.7162,-1.90836 0.51847,-0.30503 0.99775,-0.50165 1.5181,-0.88589 0.11767,-0.0869 0.27835,-0.22449 0.40197,-0.32391 0.8761,-0.69889 1.07781,-1.90427 0.4488,-2.69279 -0.62902,-0.78851 -1.84791,-0.86279 -2.72401,-0.16391 -0.1247,0.0988 -0.29391,0.22761 -0.40587,0.32392 -0.49035,0.42185 -0.79318,0.83851 -1.20589,1.27614 -0.90072,0.91489 -1.64522,1.67815 -2.46253,2.22838 -0.35417,0.20619 -0.87293,0.13485 -1.10834,0.12098 l -0.69466,0.49563 c -3.96114,-4.15366 -9.3543,-6.80928 -15.16152,-7.32515 -0.0162,-0.24336 -0.0375,-0.68325 -0.0429,-0.81564 -0.23774,-0.22749 -0.52494,-0.42171 -0.5971,-0.9132 -0.0795,-0.98207 0.0532,-2.03866 0.20684,-3.3133 0.0848,-0.59553 0.22571,-1.09025 0.24976,-1.73665 0.005,-0.14694 -0.003,-0.36016 -0.004,-0.51904 -1.2e-4,-1.12071 -0.81773,-2.02945 -1.82641,-2.02934 z m -2.28692,14.16637 -0.54246,9.58085 -0.039,0.0195 c -0.0364,0.85711 -0.74179,1.54152 -1.60786,1.54152 -0.35477,0 -0.68223,-0.11393 -0.94833,-0.30831 l -0.0156,0.008 -7.8559,-5.56899 c 2.41444,-2.37416 5.5027,-4.12867 9.0618,-4.93677 0.65014,-0.14761 1.29999,-0.25714 1.94739,-0.33562 z m 4.57773,0 c 4.15528,0.51106 7.99811,2.39261 10.94285,5.2763 l -7.80517,5.53386 -0.0273,-0.0117 c -0.69278,0.50598 -1.66886,0.38044 -2.20886,-0.2966 -0.22121,-0.27736 -0.33727,-0.60348 -0.35123,-0.93272 l -0.008,-0.004 z m -18.4358,8.85106 7.17295,6.41585 -0.008,0.039 c 0.64743,0.56284 0.74291,1.53954 0.20293,2.21666 -0.22119,0.27738 -0.51728,0.46341 -0.83515,0.55027 l -0.008,0.0312 -9.19448,2.65376 c -0.46797,-4.27913 0.54056,-8.43878 2.66937,-11.90679 z m 32.23924,0.004 c 1.06576,1.72745 1.87281,3.65684 2.35326,5.74851 0.47469,2.06659 0.59381,4.12949 0.39806,6.12315 l -9.24132,-2.66156 -0.008,-0.039 c -0.82753,-0.22616 -1.33611,-1.06795 -1.14345,-1.91226 0.0789,-0.34588 0.26253,-0.63848 0.51124,-0.85467 l -0.004,-0.0195 7.13392,-6.38462 z m -17.56553,6.90758 h 2.93865 l 1.82641,2.28301 -0.65564,2.84889 -2.63814,1.26833 -2.64595,-1.27224 -0.65564,-2.84888 z m 9.42084,7.81297 c 0.12488,-0.006 0.24921,0.005 0.37075,0.0273 l 0.0156,-0.0195 9.51059,1.60787 c -1.39188,3.91045 -4.05529,7.29815 -7.61394,9.56521 l -3.69184,-8.9174 0.0117,-0.0156 c -0.33913,-0.78801 2.5e-4,-1.71209 0.78051,-2.08788 0.19978,-0.0962 0.40848,-0.14949 0.61661,-0.16001 z m -15.97327,0.039 c 0.72578,0.0102 1.37678,0.51392 1.54542,1.25273 0.0789,0.34587 0.0405,0.68857 -0.0898,0.99125 l 0.0273,0.0351 -3.65282,8.82764 c -3.41518,-2.19152 -6.13539,-5.47287 -7.59052,-9.49888 l 9.42864,-1.60006 0.0156,0.0195 c 0.10546,-0.0194 0.21242,-0.0288 0.31611,-0.0273 z m 7.96517,3.86746 c 0.25282,-0.009 0.50935,0.0426 0.7532,0.16001 0.31964,0.15392 0.56656,0.39628 0.72198,0.68685 h 0.0351 l 4.64797,8.39836 c -0.60322,0.20221 -1.22336,0.37504 -1.85763,0.51905 -3.55473,0.8071 -7.09816,0.56255 -10.30672,-0.53076 l 4.63627,-8.38274 h 0.008 c 0.2782,-0.52006 0.8058,-0.83033 1.362,-0.85077 z"
         id="path3059"
         inkscape:connector-curvature="0" />
    </g>
    <g
       id="g5453"
       transform="matrix(0.26458333,0,0,0.26458333,222.40253,277.79866)">
      <polygon
         style="fill:#464547"
         points="112.142,48.001 112.142,0 0,0 0,48.001 "
         id="polygon5441" />
      <polygon
         style="fill:#b2d235"
         points="158.847,0 112.142,0 112.142,48.001 143.854,48.001 158.847,20.891 "
         id="polygon5443" />
      <polygon
         style="fill:#ffffff"
         points="137.511,38.621 126.331,38.621 138.19,16.579 120.491,16.579 120.491,8.431 148.464,8.431 148.464,18.209 "
         id="polygon5445" />
      <polygon
         style="fill:#b2d235"
         points="8.552,8.431 36.931,8.431 36.931,16.578 27.423,16.578 27.423,38.621 17.467,38.621 17.467,16.578 8.552,16.578 "
         id="polygon5447" />
      <polygon
         style="fill:#b2d235"
         points="67.471,38.621 42.079,38.621 42.079,8.431 67.471,8.431 67.471,16.578 51.446,16.578 51.446,19.72 64.685,19.72 64.685,27.335 51.446,27.335 51.446,30.474 67.471,30.474 "
         id="polygon5449" />
      <polygon
         style="fill:#b2d235"
         points="72.708,8.431 84.434,8.431 93.162,20.902 93.162,8.431 102.534,8.431 102.534,38.621 93.479,38.621 82.074,22.077 82.074,38.621 72.708,38.621 "
         id="polygon5451" />
    </g>
  </g>
</svg>
