<?xml version="1.0" encoding="UTF-8" standalone="no"?>
<!-- Generator: Adobe Illustrator 18.1.1, SVG Export Plug-In . SVG Version: 6.00 Build 0)  -->

<svg
   xmlns:dc="http://purl.org/dc/elements/1.1/"
   xmlns:cc="http://creativecommons.org/ns#"
   xmlns:rdf="http://www.w3.org/1999/02/22-rdf-syntax-ns#"
   xmlns:svg="http://www.w3.org/2000/svg"
   xmlns="http://www.w3.org/2000/svg"
   xmlns:sodipodi="http://sodipodi.sourceforge.net/DTD/sodipodi-0.dtd"
   xmlns:inkscape="http://www.inkscape.org/namespaces/inkscape"
   version="1.1"
   id="Layer_1"
   x="0px"
   y="0px"
   viewBox="-249 83.1 381 416"
   enable-background="new -249 83.1 381 416"
   xml:space="preserve"
   sodipodi:docname="logo.svg"
   inkscape:version="0.92.4 5da689c313, 2019-01-14"><metadata
   id="metadata4652"><rdf:RDF><cc:Work
       rdf:about=""><dc:format>image/svg+xml</dc:format><dc:type
         rdf:resource="http://purl.org/dc/dcmitype/StillImage" /><dc:title></dc:title></cc:Work></rdf:RDF></metadata><defs
   id="defs4650">
	
	
	
	

		
	
		
	
		
	
		
	</defs><sodipodi:namedview
   pagecolor="#ffffff"
   bordercolor="#666666"
   borderopacity="1"
   objecttolerance="10"
   gridtolerance="10"
   guidetolerance="10"
   inkscape:pageopacity="0"
   inkscape:pageshadow="2"
   inkscape:window-width="3200"
   inkscape:window-height="1672"
   id="namedview4648"
   showgrid="false"
   inkscape:zoom="2.3779865"
   inkscape:cx="16.383923"
   inkscape:cy="285.14894"
   inkscape:window-x="0"
   inkscape:window-y="54"
   inkscape:window-maximized="1"
   inkscape:current-layer="Layer_1" />
<path
   style="fill:#2ba9e0;stroke-width:1.78429568"
   d="M 171.69922,22.599609 C 180.79922,117.79961 85,83.2 49.5,171 c -22.665991,56.23461 -4.075874,125.17916 52.34766,164.41602 49.53877,31.64721 94.05035,35.38779 138.85742,17.89257 39.19865,-14.98796 71.18477,-45.73286 86.0957,-82.4082 22.20789,-54.57365 1.6656,-95.6586 -32.875,-132.93555 -26.31627,-27.8608 -35.27891,-32.4942 -59.33984,-54.523434 C 212.02438,63.957105 189.49019,44.167431 171.69922,22.599609 Z"
   transform="translate(-249,83.1)"
   id="path4629"
   inkscape:connector-curvature="0"
   sodipodi:nodetypes="cccccccc" />
<path
   inkscape:connector-curvature="0"
   id="path3059"
   d="m -60.944226,183.4557 c -3.812305,3.9e-4 -6.903416,3.43421 -6.902963,7.66995 4e-6,0.065 0.01331,0.12713 0.01473,0.19176 -0.0056,0.57553 -0.03341,1.2689 -0.01473,1.76998 0.09092,2.44307 0.623462,4.31288 0.943995,6.56372 0.580689,4.81752 1.067267,8.81095 0.766996,12.52269 -0.29202,1.39966 -1.322952,2.67971 -2.241988,3.56947 l -0.162249,2.92049 c -4.142637,0.34322 -8.312986,0.97172 -12.478435,1.91749 -17.92392,4.06965 -33.35609,13.30233 -45.10525,25.76811 -0.76238,-0.5201 -2.09615,-1.47694 -2.49276,-1.76999 -1.23246,0.16643 -2.47809,0.54671 -4.10047,-0.39824 -3.08919,-2.07946 -5.90275,-4.94981 -9.3072,-8.40746 -1.55995,-1.65397 -2.6896,-3.22895 -4.54298,-4.82323 -0.42089,-0.36205 -1.06322,-0.85174 -1.534,-1.22424 -1.44897,-1.15524 -3.15799,-1.75773 -4.80847,-1.81424 -2.12205,-0.0726 -4.16488,0.75701 -5.50172,2.43374 -2.3766,2.98085 -1.61571,7.53688 1.69624,10.17744 0.0336,0.0268 0.0694,0.0476 0.10325,0.0737 0.45511,0.36893 1.01242,0.84163 1.43074,1.1505 1.96675,1.45212 3.76333,2.19546 5.72297,3.34823 4.12856,2.54964 7.5512,4.66374 10.26595,7.21271 1.06011,1.13004 1.2454,3.12128 1.38649,3.98248 l 2.21249,1.97649 c -11.84403,17.82436 -17.32554,39.84105 -14.08615,62.27417 l -2.89099,0.84074 c -0.76194,0.98393 -1.83863,2.53215 -2.96475,2.99424 -3.55185,1.11873 -7.54925,1.52955 -12.37519,2.03548 -2.26573,0.1884 -4.22068,0.076 -6.62272,0.531 -0.52867,0.10012 -1.26529,0.29206 -1.84373,0.42775 -0.0201,0.004 -0.0388,0.0101 -0.059,0.0147 -0.0316,0.007 -0.0729,0.0226 -0.10324,0.0295 -4.06869,0.98308 -6.68243,4.72281 -5.84097,8.40747 0.84165,3.6855 4.81585,5.92676 8.90895,5.04447 0.0295,-0.007 0.0724,-0.008 0.10324,-0.0147 0.0463,-0.0106 0.0869,-0.033 0.13275,-0.0442 0.57058,-0.12524 1.28562,-0.26459 1.78475,-0.39825 2.36157,-0.6323 4.07189,-1.56135 6.19497,-2.37473 4.56748,-1.63819 8.35045,-3.00673 12.03593,-3.53998 1.53926,-0.12056 3.16102,0.94973 3.96773,1.40124 l 3.00898,-0.51625 c 6.92429,21.46778 21.43537,38.81944 39.81004,49.70724 l -1.25375,3.00898 c 0.4519,1.1684 0.95033,2.74924 0.6137,3.9031 -1.33984,3.47447 -3.63482,7.14178 -6.24816,11.23033 -1.26536,1.88889 -2.56037,3.35477 -3.70223,5.51646 -0.27324,0.51726 -0.62123,1.31184 -0.885,1.8585 -1.77416,3.79597 -0.47277,8.16801 2.93524,9.80869 3.42941,1.65099 7.68623,-0.0903 9.52844,-3.89398 0.003,-0.005 0.0122,-0.009 0.0147,-0.0147 0.002,-0.004 -0.002,-0.0106 0,-0.0147 0.2624,-0.53928 0.63415,-1.24814 0.85549,-1.75524 0.97805,-2.24058 1.30348,-4.16069 1.99125,-6.32771 1.82645,-4.58789 2.829934,-9.40174 5.344215,-12.40132 0.688499,-0.82139 1.810963,-1.13728 2.974732,-1.44886 l 1.563487,-2.83199 c 16.018765,6.14862 33.949204,7.79856 51.860726,3.73174 4.086068,-0.92775 8.030773,-2.12845 11.844187,-3.56949 0.43942,0.77943 1.256046,2.27771 1.474992,2.65499 1.182632,0.38475 2.473475,0.58345 3.525231,2.13873 1.881094,3.21383 3.167529,7.01585 4.734725,11.6082 0.68788,2.16698 1.027831,4.08717 2.00599,6.32771 0.222942,0.51068 0.592828,1.22949 0.855495,1.76999 1.838345,3.81603 6.108648,5.56328 9.5431999,3.90873 3.4075861,-1.64157 4.7104123,-6.0132 2.9352345,-9.80869 -0.2637944,-0.54664 -0.6264821,-1.34126 -0.8997456,-1.8585 -1.1419786,-2.16163 -2.4367813,-3.61289 -3.7022303,-5.50172 -2.6135505,-4.08841 -4.7811845,-7.48479 -6.1212185,-10.95919 -0.560312,-1.79197 0.09453,-2.90644 0.530997,-4.07098 -0.261382,-0.29961 -0.820713,-1.99187 -1.150493,-2.78773 19.0957918,-11.27516 33.180744,-29.27389 39.795287,-50.06124 0.893208,0.14038 2.445674,0.41506 2.949984,0.51625 1.038178,-0.68472 1.992746,-1.57813 3.86448,-1.43075 3.685507,0.53306 7.468359,1.90203 12.035936,3.53999 2.123116,0.81328 3.833375,1.7573 6.194967,2.38949 0.499133,0.13361 1.214157,0.25827 1.78474,0.3835 0.04588,0.0113 0.08651,0.0337 0.13275,0.0442 0.03082,0.007 0.0737,0.008 0.103249,0.0147 4.093333,0.8812 8.06825,-1.35874 8.908954,-5.04447 0.840504,-3.68487 -1.772021,-7.42547 -5.84097,-8.40745 -0.591851,-0.13459 -1.431214,-0.36315 -2.005989,-0.47201 -2.402052,-0.4549 -4.356971,-0.34271 -6.622715,-0.53098 -4.825966,-0.50569 -8.823285,-0.91695 -12.375184,-2.0355 -1.448212,-0.5618 -2.478473,-2.28505 -2.979508,-2.99424 l -2.787735,-0.81123 c 1.445379,-10.45683 1.055646,-21.33965 -1.445492,-32.22859 -2.524427,-10.99032 -6.985738,-21.04205 -12.93568,-29.89809 0.715099,-0.65007 2.06555,-1.84594 2.448486,-2.19774 0.111939,-1.2386 0.01576,-2.53724 1.297994,-3.90873 2.714616,-2.5491 6.137518,-4.66284 10.265943,-7.21271 1.959578,-1.15286 3.771043,-1.896 5.737721,-3.34823 0.444739,-0.32839 1.052035,-0.84846 1.519241,-1.22424 3.311242,-2.64145 4.073613,-7.19722 1.696242,-10.17745 -2.377371,-2.98022 -6.984204,-3.26095 -10.295446,-0.6195 -0.471318,0.37328 -1.11086,0.86023 -1.533992,1.22425 -1.853298,1.59439 -2.997868,3.16918 -4.557726,4.82322 -3.404276,3.45783 -6.218127,6.3426 -9.307199,8.42221 -1.3385892,0.77929 -3.2992431,0.50966 -4.1890009,0.45724 l -2.625486,1.87325 C -11.00116,230.69476 -31.384777,220.65778 -53.333317,218.70803 c -0.06139,-0.91978 -0.141812,-2.58237 -0.162249,-3.08273 -0.898547,-0.85981 -1.984004,-1.59387 -2.256738,-3.45147 -0.300271,-3.71174 0.201057,-7.70517 0.781746,-12.52268 0.320534,-2.25085 0.853079,-4.12066 0.943995,-6.56373 0.02067,-0.55536 -0.01251,-1.36124 -0.01473,-1.96174 -4.53e-4,-4.23574 -3.090658,-7.67034 -6.902963,-7.66994 z m -8.643454,53.54221 -2.050239,36.21106 -0.147499,0.0737 c -0.137512,3.23948 -2.803646,5.82622 -6.076969,5.82622 -1.340855,0 -2.578494,-0.4306 -3.58423,-1.16525 l -0.05901,0.0295 -29.691583,-21.04813 c 9.12543,-8.97322 20.797574,-15.60443 34.249309,-18.65866 2.457215,-0.55791 4.913335,-0.97189 7.360212,-1.26849 z m 17.301658,0 c 15.704995,1.93156 30.229084,9.04291 41.358781,19.94189 l -29.499844,20.9154 -0.103249,-0.0442 c -2.618383,1.91238 -6.307505,1.43788 -8.348456,-1.121 -0.836058,-1.04828 -1.274733,-2.28087 -1.327493,-3.52523 l -0.0295,-0.0147 z m -69.678618,33.45282 27.110344,24.24888 -0.02952,0.1475 c 2.447007,2.12727 2.807854,5.81875 0.766991,8.37795 -0.835998,1.04833 -1.955054,1.75146 -3.156476,2.07974 l -0.02952,0.118 -34.750789,10.02995 c -1.76872,-16.17308 2.04306,-31.8946 10.08894,-45.00202 z m 121.84909184,0.0147 c 4.02807386,6.52893 7.07833406,13.8211 8.89420276,21.72663 1.7940904,7.81075 2.2443424,15.60753 1.5044914,23.14263 l -34.927815,-10.05945 -0.0295,-0.1475 c -3.127692,-0.8548 -5.049869,-4.03634 -4.321728,-7.22746 0.298317,-1.30725 0.992243,-2.41315 1.93224,-3.23023 l -0.01473,-0.0737 26.96285746,-24.13087 z M -66.504946,296.5728 h 11.10669 l 6.902964,8.62871 -2.477987,10.76744 -9.970947,4.79372 -10.000447,-4.80847 -2.477987,-10.76744 z m 35.606311,29.52935 c 0.471983,-0.0238 0.941908,0.0187 1.401242,0.10325 l 0.059,-0.0737 35.9455598,6.07697 c -5.2606431,14.77966 -15.3270804,27.58357 -28.7770928,36.15201 l -13.953426,-33.70357 0.04423,-0.059 c -1.281761,-2.9783 9.44e-4,-6.47088 2.949984,-7.89121 0.755031,-0.36363 1.543853,-0.56498 2.330488,-0.60474 z m -60.37143,0.14749 c 2.743126,0.0385 5.203593,1.94239 5.840969,4.73473 0.298391,1.30723 0.153163,2.60247 -0.339249,3.74648 l 0.10325,0.13275 -13.805924,33.36433 c -12.907791,-8.2829 -23.188891,-20.68485 -28.688581,-35.90129 l 35.635791,-6.04748 0.059,0.0738 c 0.398606,-0.0733 0.802868,-0.10875 1.194744,-0.10326 z m 30.104591,14.6172 c 0.955535,-0.0351 1.925113,0.16095 2.846735,0.60475 1.208082,0.58175 2.141324,1.49774 2.728735,2.59598 h 0.132749 l 17.567156,31.74183 c -2.279884,0.76427 -4.62373,1.41745 -7.020962,1.96174 -13.435187,3.05047 -26.827686,2.1262 -38.954544,-2.00599 l 17.522908,-31.68283 h 0.0295 c 1.051455,-1.96558 3.045549,-3.13825 5.147723,-3.21548 z"
   style="color:#000000;font-style:normal;font-variant:normal;font-weight:normal;font-stretch:normal;font-size:medium;line-height:normal;font-family:Sans;-inkscape-font-specification:Sans;text-indent:0;text-align:start;text-decoration:none;text-decoration-line:none;letter-spacing:normal;word-spacing:normal;text-transform:none;writing-mode:lr-tb;direction:ltr;baseline-shift:baseline;text-anchor:start;display:inline;overflow:visible;visibility:visible;fill:#ffffff;fill-opacity:1;stroke:none;stroke-width:0;stroke-miterlimit:4;stroke-dasharray:none;stroke-opacity:1;marker:none;enable-background:accumulate"
   sodipodi:nodetypes="ccccccccsccccscssccsccccccccscccsccccccccccccccscccscsccsccccscscsccccccccscccscsccccsccccscscscccccccccccccccscccsccccccccccccscccccscccccccccccccccccccccccscccscccccccccscccscccc"
   inkscape:export-filename="./path3059.png"
   inkscape:export-xdpi="250.55"
   inkscape:export-ydpi="250.55" /></svg>